<mxfile host="Electron" agent="Mozilla/5.0 (Windows NT 10.0; Win64; x64) AppleWebKit/537.36 (KHTML, like Gecko) draw.io/28.0.4 Chrome/138.0.7204.97 Electron/37.2.1 Safari/537.36" version="28.0.4">
  <diagram name="第 1 页" id="o84kC3mVbSfqN-R0YSoq">
    <mxGraphModel dx="3374" dy="3159" grid="0" gridSize="10" guides="1" tooltips="1" connect="1" arrows="1" fold="1" page="1" pageScale="1" pageWidth="1169" pageHeight="1654" math="0" shadow="0">
      <root>
        <mxCell id="0" />
        <mxCell id="1" parent="0" />
        <mxCell id="z2yshtgwUrTWsipl_77C-11" value="" style="swimlane;startSize=0;" parent="1" vertex="1">
          <mxGeometry x="121" y="-146" width="891" height="1155" as="geometry" />
        </mxCell>
        <mxCell id="z2yshtgwUrTWsipl_77C-5" value="普通用户" style="shape=umlActor;verticalLabelPosition=bottom;verticalAlign=top;html=1;" parent="z2yshtgwUrTWsipl_77C-11" vertex="1">
          <mxGeometry x="-114" y="402" width="56" height="123" as="geometry" />
        </mxCell>
        <mxCell id="z2yshtgwUrTWsipl_77C-6" value="超级管理员" style="shape=umlActor;verticalLabelPosition=bottom;verticalAlign=top;html=1;" parent="z2yshtgwUrTWsipl_77C-11" vertex="1">
          <mxGeometry x="912" y="203" width="30" height="60" as="geometry" />
        </mxCell>
        <mxCell id="z2yshtgwUrTWsipl_77C-80" value="" style="endArrow=block;endSize=16;endFill=0;html=1;rounded=0;entryX=0.5;entryY=0;entryDx=0;entryDy=0;entryPerimeter=0;exitX=0.5;exitY=0;exitDx=0;exitDy=0;exitPerimeter=0;" parent="z2yshtgwUrTWsipl_77C-11" source="z2yshtgwUrTWsipl_77C-6" target="z2yshtgwUrTWsipl_77C-5" edge="1">
          <mxGeometry width="160" relative="1" as="geometry">
            <mxPoint x="896" y="39" as="sourcePoint" />
            <mxPoint x="885" y="-60" as="targetPoint" />
            <Array as="points">
              <mxPoint x="919" y="-40" />
              <mxPoint x="-89" y="-43" />
            </Array>
          </mxGeometry>
        </mxCell>
        <mxCell id="z2yshtgwUrTWsipl_77C-12" value="查看实时地铁人流量" style="ellipse;whiteSpace=wrap;html=1;" parent="z2yshtgwUrTWsipl_77C-11" vertex="1">
          <mxGeometry x="206" y="137" width="120" height="80" as="geometry" />
        </mxCell>
        <mxCell id="z2yshtgwUrTWsipl_77C-20" value="查看地铁人流量" style="ellipse;whiteSpace=wrap;html=1;" parent="z2yshtgwUrTWsipl_77C-11" vertex="1">
          <mxGeometry x="35" y="217" width="120" height="80" as="geometry" />
        </mxCell>
        <mxCell id="z2yshtgwUrTWsipl_77C-18" value="查看历史地铁人流量" style="ellipse;whiteSpace=wrap;html=1;" parent="z2yshtgwUrTWsipl_77C-11" vertex="1">
          <mxGeometry x="206" y="224" width="120" height="80" as="geometry" />
        </mxCell>
        <mxCell id="z2yshtgwUrTWsipl_77C-19" value="查看预测地铁人流量" style="ellipse;whiteSpace=wrap;html=1;" parent="z2yshtgwUrTWsipl_77C-11" vertex="1">
          <mxGeometry x="206" y="318" width="120" height="80" as="geometry" />
        </mxCell>
        <mxCell id="z2yshtgwUrTWsipl_77C-22" value="&amp;lt;&amp;lt;include&amp;gt;&amp;gt;" style="html=1;verticalAlign=bottom;labelBackgroundColor=none;endArrow=open;endFill=0;dashed=1;rounded=0;entryX=0.5;entryY=0;entryDx=0;entryDy=0;exitX=0;exitY=0.596;exitDx=0;exitDy=0;exitPerimeter=0;" parent="z2yshtgwUrTWsipl_77C-11" source="z2yshtgwUrTWsipl_77C-12" target="z2yshtgwUrTWsipl_77C-20" edge="1">
          <mxGeometry width="160" relative="1" as="geometry">
            <mxPoint x="189" y="146.5" as="sourcePoint" />
            <mxPoint x="349" y="146.5" as="targetPoint" />
          </mxGeometry>
        </mxCell>
        <mxCell id="z2yshtgwUrTWsipl_77C-27" value="&amp;lt;&amp;lt;include&amp;gt;&amp;gt;" style="html=1;verticalAlign=bottom;labelBackgroundColor=none;endArrow=open;endFill=0;dashed=1;rounded=0;entryX=0.994;entryY=0.604;entryDx=0;entryDy=0;entryPerimeter=0;" parent="z2yshtgwUrTWsipl_77C-11" source="z2yshtgwUrTWsipl_77C-18" target="z2yshtgwUrTWsipl_77C-20" edge="1">
          <mxGeometry width="160" relative="1" as="geometry">
            <mxPoint x="149" y="307" as="sourcePoint" />
            <mxPoint x="295" y="307" as="targetPoint" />
          </mxGeometry>
        </mxCell>
        <mxCell id="z2yshtgwUrTWsipl_77C-28" value="&amp;lt;&amp;lt;include&amp;gt;&amp;gt;" style="html=1;verticalAlign=bottom;labelBackgroundColor=none;endArrow=open;endFill=0;dashed=1;rounded=0;entryX=0.5;entryY=1;entryDx=0;entryDy=0;exitX=0;exitY=0.5;exitDx=0;exitDy=0;" parent="z2yshtgwUrTWsipl_77C-11" source="z2yshtgwUrTWsipl_77C-19" target="z2yshtgwUrTWsipl_77C-20" edge="1">
          <mxGeometry width="160" relative="1" as="geometry">
            <mxPoint x="55" y="377" as="sourcePoint" />
            <mxPoint x="215" y="377" as="targetPoint" />
          </mxGeometry>
        </mxCell>
        <mxCell id="z2yshtgwUrTWsipl_77C-29" value="个人信息管理" style="ellipse;whiteSpace=wrap;html=1;" parent="z2yshtgwUrTWsipl_77C-11" vertex="1">
          <mxGeometry x="236" y="457" width="140" height="70" as="geometry" />
        </mxCell>
        <mxCell id="z2yshtgwUrTWsipl_77C-30" value="修改邮箱" style="ellipse;whiteSpace=wrap;html=1;" parent="z2yshtgwUrTWsipl_77C-11" vertex="1">
          <mxGeometry x="431" y="377" width="140" height="70" as="geometry" />
        </mxCell>
        <mxCell id="z2yshtgwUrTWsipl_77C-33" value="&amp;lt;&amp;lt;include&amp;gt;&amp;gt;" style="html=1;verticalAlign=bottom;labelBackgroundColor=none;endArrow=open;endFill=0;dashed=1;rounded=0;entryX=0.5;entryY=0;entryDx=0;entryDy=0;exitX=0;exitY=0.5;exitDx=0;exitDy=0;" parent="z2yshtgwUrTWsipl_77C-11" source="z2yshtgwUrTWsipl_77C-30" target="z2yshtgwUrTWsipl_77C-29" edge="1">
          <mxGeometry width="160" relative="1" as="geometry">
            <mxPoint x="281" y="417" as="sourcePoint" />
            <mxPoint x="441" y="417" as="targetPoint" />
          </mxGeometry>
        </mxCell>
        <mxCell id="z2yshtgwUrTWsipl_77C-32" value="修改头像" style="ellipse;whiteSpace=wrap;html=1;" parent="z2yshtgwUrTWsipl_77C-11" vertex="1">
          <mxGeometry x="431" y="537" width="140" height="70" as="geometry" />
        </mxCell>
        <mxCell id="z2yshtgwUrTWsipl_77C-35" value="&amp;lt;&amp;lt;include&amp;gt;&amp;gt;" style="html=1;verticalAlign=bottom;labelBackgroundColor=none;endArrow=open;endFill=0;dashed=1;rounded=0;entryX=0.5;entryY=1;entryDx=0;entryDy=0;exitX=0;exitY=0.5;exitDx=0;exitDy=0;" parent="z2yshtgwUrTWsipl_77C-11" source="z2yshtgwUrTWsipl_77C-32" target="z2yshtgwUrTWsipl_77C-29" edge="1">
          <mxGeometry width="160" relative="1" as="geometry">
            <mxPoint x="231" y="597" as="sourcePoint" />
            <mxPoint x="391" y="597" as="targetPoint" />
          </mxGeometry>
        </mxCell>
        <mxCell id="z2yshtgwUrTWsipl_77C-31" value="修改密码" style="ellipse;whiteSpace=wrap;html=1;" parent="z2yshtgwUrTWsipl_77C-11" vertex="1">
          <mxGeometry x="431" y="457" width="140" height="70" as="geometry" />
        </mxCell>
        <mxCell id="z2yshtgwUrTWsipl_77C-34" value="&amp;lt;&amp;lt;include&amp;gt;&amp;gt;" style="html=1;verticalAlign=bottom;labelBackgroundColor=none;endArrow=open;endFill=0;dashed=1;rounded=0;entryX=1;entryY=0.5;entryDx=0;entryDy=0;exitX=0;exitY=0.5;exitDx=0;exitDy=0;" parent="z2yshtgwUrTWsipl_77C-11" source="z2yshtgwUrTWsipl_77C-31" target="z2yshtgwUrTWsipl_77C-29" edge="1">
          <mxGeometry width="160" relative="1" as="geometry">
            <mxPoint x="391" y="557" as="sourcePoint" />
            <mxPoint x="551" y="557" as="targetPoint" />
          </mxGeometry>
        </mxCell>
        <mxCell id="z2yshtgwUrTWsipl_77C-45" value="AI聊天" style="ellipse;whiteSpace=wrap;html=1;" parent="z2yshtgwUrTWsipl_77C-11" vertex="1">
          <mxGeometry x="35" y="629" width="120" height="80" as="geometry" />
        </mxCell>
        <mxCell id="z2yshtgwUrTWsipl_77C-69" value="用户管理" style="ellipse;whiteSpace=wrap;html=1;" parent="z2yshtgwUrTWsipl_77C-11" vertex="1">
          <mxGeometry x="704" y="180.5" width="140" height="70" as="geometry" />
        </mxCell>
        <mxCell id="z2yshtgwUrTWsipl_77C-70" value="用户权限修改" style="ellipse;whiteSpace=wrap;html=1;" parent="z2yshtgwUrTWsipl_77C-11" vertex="1">
          <mxGeometry x="481" y="158" width="140" height="70" as="geometry" />
        </mxCell>
        <mxCell id="z2yshtgwUrTWsipl_77C-71" value="用户删除" style="ellipse;whiteSpace=wrap;html=1;" parent="z2yshtgwUrTWsipl_77C-11" vertex="1">
          <mxGeometry x="488" y="248" width="140" height="70" as="geometry" />
        </mxCell>
        <mxCell id="z2yshtgwUrTWsipl_77C-74" value="&amp;lt;&amp;lt;include&amp;gt;&amp;gt;" style="html=1;verticalAlign=bottom;labelBackgroundColor=none;endArrow=open;endFill=0;dashed=1;rounded=0;exitX=0.996;exitY=0.38;exitDx=0;exitDy=0;exitPerimeter=0;entryX=0.042;entryY=0.318;entryDx=0;entryDy=0;entryPerimeter=0;" parent="z2yshtgwUrTWsipl_77C-11" source="z2yshtgwUrTWsipl_77C-70" target="z2yshtgwUrTWsipl_77C-69" edge="1">
          <mxGeometry width="160" relative="1" as="geometry">
            <mxPoint x="664" y="215.5" as="sourcePoint" />
            <mxPoint x="712.5799999999999" y="253.69000000000005" as="targetPoint" />
          </mxGeometry>
        </mxCell>
        <mxCell id="z2yshtgwUrTWsipl_77C-76" value="&amp;lt;&amp;lt;include&amp;gt;&amp;gt;" style="html=1;verticalAlign=bottom;labelBackgroundColor=none;endArrow=open;endFill=0;dashed=1;rounded=0;entryX=0;entryY=1;entryDx=0;entryDy=0;" parent="z2yshtgwUrTWsipl_77C-11" source="z2yshtgwUrTWsipl_77C-71" target="z2yshtgwUrTWsipl_77C-69" edge="1">
          <mxGeometry width="160" relative="1" as="geometry">
            <mxPoint x="254" y="260.5" as="sourcePoint" />
            <mxPoint x="721.54" y="290.99999999999955" as="targetPoint" />
          </mxGeometry>
        </mxCell>
        <mxCell id="BZIjttsFyeLr9ljP96CP-4" value="登录注册" style="ellipse;whiteSpace=wrap;html=1;" parent="z2yshtgwUrTWsipl_77C-11" vertex="1">
          <mxGeometry x="51" y="90" width="120" height="80" as="geometry" />
        </mxCell>
        <mxCell id="BZIjttsFyeLr9ljP96CP-6" value="导航" style="ellipse;whiteSpace=wrap;html=1;" parent="z2yshtgwUrTWsipl_77C-11" vertex="1">
          <mxGeometry x="25" y="516" width="140" height="70" as="geometry" />
        </mxCell>
        <mxCell id="z2yshtgwUrTWsipl_77C-63" value="地铁站附近单车情况查看" style="ellipse;whiteSpace=wrap;html=1;" parent="z2yshtgwUrTWsipl_77C-11" vertex="1">
          <mxGeometry x="8" y="297" width="140" height="70" as="geometry" />
        </mxCell>
        <mxCell id="z2yshtgwUrTWsipl_77C-4" value="地铁管理员" style="shape=umlActor;verticalLabelPosition=bottom;verticalAlign=top;html=1;" parent="z2yshtgwUrTWsipl_77C-11" vertex="1">
          <mxGeometry x="-76" y="740" width="30" height="60" as="geometry" />
        </mxCell>
        <mxCell id="z2yshtgwUrTWsipl_77C-54" value="数据分析" style="ellipse;whiteSpace=wrap;html=1;" parent="z2yshtgwUrTWsipl_77C-11" vertex="1">
          <mxGeometry x="126" y="725" width="140" height="70" as="geometry" />
        </mxCell>
        <mxCell id="z2yshtgwUrTWsipl_77C-55" value="站点客流量排名" style="ellipse;whiteSpace=wrap;html=1;" parent="z2yshtgwUrTWsipl_77C-11" vertex="1">
          <mxGeometry x="321" y="645" width="140" height="70" as="geometry" />
        </mxCell>
        <mxCell id="z2yshtgwUrTWsipl_77C-56" value="&amp;lt;&amp;lt;include&amp;gt;&amp;gt;" style="html=1;verticalAlign=bottom;labelBackgroundColor=none;endArrow=open;endFill=0;dashed=1;rounded=0;entryX=0.5;entryY=0;entryDx=0;entryDy=0;exitX=0;exitY=0.5;exitDx=0;exitDy=0;" parent="z2yshtgwUrTWsipl_77C-11" source="z2yshtgwUrTWsipl_77C-55" target="z2yshtgwUrTWsipl_77C-54" edge="1">
          <mxGeometry width="160" relative="1" as="geometry">
            <mxPoint x="171" y="685" as="sourcePoint" />
            <mxPoint x="331" y="685" as="targetPoint" />
          </mxGeometry>
        </mxCell>
        <mxCell id="z2yshtgwUrTWsipl_77C-57" value="站点信息对比" style="ellipse;whiteSpace=wrap;html=1;" parent="z2yshtgwUrTWsipl_77C-11" vertex="1">
          <mxGeometry x="321" y="805" width="140" height="70" as="geometry" />
        </mxCell>
        <mxCell id="z2yshtgwUrTWsipl_77C-58" value="&amp;lt;&amp;lt;include&amp;gt;&amp;gt;" style="html=1;verticalAlign=bottom;labelBackgroundColor=none;endArrow=open;endFill=0;dashed=1;rounded=0;entryX=0.5;entryY=1;entryDx=0;entryDy=0;exitX=0;exitY=0.5;exitDx=0;exitDy=0;" parent="z2yshtgwUrTWsipl_77C-11" source="z2yshtgwUrTWsipl_77C-57" target="z2yshtgwUrTWsipl_77C-54" edge="1">
          <mxGeometry width="160" relative="1" as="geometry">
            <mxPoint x="121" y="865" as="sourcePoint" />
            <mxPoint x="281" y="865" as="targetPoint" />
          </mxGeometry>
        </mxCell>
        <mxCell id="z2yshtgwUrTWsipl_77C-59" value="客流量趋势预测" style="ellipse;whiteSpace=wrap;html=1;" parent="z2yshtgwUrTWsipl_77C-11" vertex="1">
          <mxGeometry x="321" y="725" width="140" height="70" as="geometry" />
        </mxCell>
        <mxCell id="z2yshtgwUrTWsipl_77C-60" value="&amp;lt;&amp;lt;include&amp;gt;&amp;gt;" style="html=1;verticalAlign=bottom;labelBackgroundColor=none;endArrow=open;endFill=0;dashed=1;rounded=0;entryX=1;entryY=0.5;entryDx=0;entryDy=0;exitX=0;exitY=0.5;exitDx=0;exitDy=0;" parent="z2yshtgwUrTWsipl_77C-11" source="z2yshtgwUrTWsipl_77C-59" target="z2yshtgwUrTWsipl_77C-54" edge="1">
          <mxGeometry width="160" relative="1" as="geometry">
            <mxPoint x="281" y="825" as="sourcePoint" />
            <mxPoint x="441" y="825" as="targetPoint" />
          </mxGeometry>
        </mxCell>
        <mxCell id="z2yshtgwUrTWsipl_77C-62" value="" style="endArrow=open;endFill=1;endSize=12;html=1;rounded=0;exitX=1;exitY=0.3333333333333333;exitDx=0;exitDy=0;exitPerimeter=0;entryX=0;entryY=0.5;entryDx=0;entryDy=0;" parent="z2yshtgwUrTWsipl_77C-11" source="z2yshtgwUrTWsipl_77C-4" target="z2yshtgwUrTWsipl_77C-54" edge="1">
          <mxGeometry width="160" relative="1" as="geometry">
            <mxPoint x="2" y="623" as="sourcePoint" />
            <mxPoint x="156" y="752" as="targetPoint" />
          </mxGeometry>
        </mxCell>
        <mxCell id="z2yshtgwUrTWsipl_77C-38" value="" style="endArrow=block;endSize=16;endFill=0;html=1;rounded=0;entryX=1;entryY=1;entryDx=0;entryDy=0;entryPerimeter=0;exitX=0.5;exitY=0;exitDx=0;exitDy=0;exitPerimeter=0;" parent="z2yshtgwUrTWsipl_77C-11" source="z2yshtgwUrTWsipl_77C-4" target="z2yshtgwUrTWsipl_77C-5" edge="1">
          <mxGeometry width="160" relative="1" as="geometry">
            <mxPoint x="-168" y="552" as="sourcePoint" />
            <mxPoint x="-8" y="552" as="targetPoint" />
          </mxGeometry>
        </mxCell>
        <mxCell id="z2yshtgwUrTWsipl_77C-43" value="" style="endArrow=open;endFill=1;endSize=12;html=1;rounded=0;exitX=1;exitY=0.3333333333333333;exitDx=0;exitDy=0;exitPerimeter=0;entryX=0;entryY=0.5;entryDx=0;entryDy=0;" parent="z2yshtgwUrTWsipl_77C-11" source="z2yshtgwUrTWsipl_77C-5" target="z2yshtgwUrTWsipl_77C-20" edge="1">
          <mxGeometry width="160" relative="1" as="geometry">
            <mxPoint x="-48" y="402" as="sourcePoint" />
            <mxPoint x="112" y="402" as="targetPoint" />
            <Array as="points" />
          </mxGeometry>
        </mxCell>
        <mxCell id="z2yshtgwUrTWsipl_77C-44" value="" style="endArrow=open;endFill=1;endSize=12;html=1;rounded=0;exitX=1;exitY=0.3333333333333333;exitDx=0;exitDy=0;exitPerimeter=0;entryX=0;entryY=0.5;entryDx=0;entryDy=0;" parent="z2yshtgwUrTWsipl_77C-11" source="z2yshtgwUrTWsipl_77C-5" target="z2yshtgwUrTWsipl_77C-29" edge="1">
          <mxGeometry width="160" relative="1" as="geometry">
            <mxPoint x="-38" y="472" as="sourcePoint" />
            <mxPoint x="122" y="472" as="targetPoint" />
          </mxGeometry>
        </mxCell>
        <mxCell id="z2yshtgwUrTWsipl_77C-46" value="" style="endArrow=open;endFill=1;endSize=12;html=1;rounded=0;exitX=1;exitY=0.3333333333333333;exitDx=0;exitDy=0;exitPerimeter=0;entryX=0;entryY=0.5;entryDx=0;entryDy=0;" parent="z2yshtgwUrTWsipl_77C-11" source="z2yshtgwUrTWsipl_77C-5" target="z2yshtgwUrTWsipl_77C-45" edge="1">
          <mxGeometry width="160" relative="1" as="geometry">
            <mxPoint x="-40" y="452" as="sourcePoint" />
            <mxPoint x="120" y="452" as="targetPoint" />
          </mxGeometry>
        </mxCell>
        <mxCell id="z2yshtgwUrTWsipl_77C-64" value="" style="endArrow=open;endFill=1;endSize=12;html=1;rounded=0;exitX=1;exitY=0.3333333333333333;exitDx=0;exitDy=0;exitPerimeter=0;entryX=0;entryY=0.5;entryDx=0;entryDy=0;" parent="z2yshtgwUrTWsipl_77C-11" source="z2yshtgwUrTWsipl_77C-5" target="z2yshtgwUrTWsipl_77C-63" edge="1">
          <mxGeometry width="160" relative="1" as="geometry">
            <mxPoint x="-68" y="755" as="sourcePoint" />
            <mxPoint x="92" y="755" as="targetPoint" />
          </mxGeometry>
        </mxCell>
        <mxCell id="z2yshtgwUrTWsipl_77C-79" value="" style="endArrow=open;endFill=1;endSize=12;html=1;rounded=0;entryX=0.98;entryY=0.6;entryDx=0;entryDy=0;entryPerimeter=0;exitX=0;exitY=0.3333333333333333;exitDx=0;exitDy=0;exitPerimeter=0;" parent="z2yshtgwUrTWsipl_77C-11" source="z2yshtgwUrTWsipl_77C-6" target="z2yshtgwUrTWsipl_77C-69" edge="1">
          <mxGeometry width="160" relative="1" as="geometry">
            <mxPoint x="644" y="409" as="sourcePoint" />
            <mxPoint x="804" y="409" as="targetPoint" />
          </mxGeometry>
        </mxCell>
        <mxCell id="BZIjttsFyeLr9ljP96CP-5" value="" style="endArrow=open;endFill=1;endSize=12;html=1;rounded=0;entryX=0.018;entryY=0.643;entryDx=0;entryDy=0;entryPerimeter=0;exitX=1;exitY=0.3333333333333333;exitDx=0;exitDy=0;exitPerimeter=0;" parent="z2yshtgwUrTWsipl_77C-11" source="z2yshtgwUrTWsipl_77C-5" target="BZIjttsFyeLr9ljP96CP-4" edge="1">
          <mxGeometry width="160" relative="1" as="geometry">
            <mxPoint x="-35" y="266" as="sourcePoint" />
            <mxPoint x="125" y="266" as="targetPoint" />
          </mxGeometry>
        </mxCell>
        <mxCell id="BZIjttsFyeLr9ljP96CP-7" value="" style="endArrow=open;endFill=1;endSize=12;html=1;rounded=0;exitX=1;exitY=0.3333333333333333;exitDx=0;exitDy=0;exitPerimeter=0;entryX=0;entryY=0.5;entryDx=0;entryDy=0;" parent="z2yshtgwUrTWsipl_77C-11" source="z2yshtgwUrTWsipl_77C-5" target="BZIjttsFyeLr9ljP96CP-6" edge="1">
          <mxGeometry width="160" relative="1" as="geometry">
            <mxPoint x="-84" y="478" as="sourcePoint" />
            <mxPoint x="76" y="478" as="targetPoint" />
          </mxGeometry>
        </mxCell>
        <mxCell id="z2yshtgwUrTWsipl_77C-1" value="单车管理员" style="shape=umlActor;verticalLabelPosition=bottom;verticalAlign=top;html=1;" parent="z2yshtgwUrTWsipl_77C-11" vertex="1">
          <mxGeometry x="-125" y="986" width="30" height="60" as="geometry" />
        </mxCell>
        <mxCell id="z2yshtgwUrTWsipl_77C-39" value="" style="endArrow=block;endSize=16;endFill=0;html=1;rounded=0;entryX=0;entryY=1;entryDx=0;entryDy=0;entryPerimeter=0;" parent="z2yshtgwUrTWsipl_77C-11" source="z2yshtgwUrTWsipl_77C-1" target="z2yshtgwUrTWsipl_77C-5" edge="1">
          <mxGeometry width="160" relative="1" as="geometry">
            <mxPoint x="-36" y="326" as="sourcePoint" />
            <mxPoint x="-36" y="326" as="targetPoint" />
          </mxGeometry>
        </mxCell>
        <mxCell id="z2yshtgwUrTWsipl_77C-65" value="单车调度" style="ellipse;whiteSpace=wrap;html=1;" parent="z2yshtgwUrTWsipl_77C-11" vertex="1">
          <mxGeometry x="55" y="969" width="140" height="70" as="geometry" />
        </mxCell>
        <mxCell id="z2yshtgwUrTWsipl_77C-67" value="单车调度路径规划" style="ellipse;whiteSpace=wrap;html=1;" parent="z2yshtgwUrTWsipl_77C-11" vertex="1">
          <mxGeometry x="247" y="907" width="140" height="70" as="geometry" />
        </mxCell>
        <mxCell id="z2yshtgwUrTWsipl_77C-68" value="调度方案管理" style="ellipse;whiteSpace=wrap;html=1;" parent="z2yshtgwUrTWsipl_77C-11" vertex="1">
          <mxGeometry x="247" y="1020" width="140" height="70" as="geometry" />
        </mxCell>
        <mxCell id="z2yshtgwUrTWsipl_77C-72" value="&amp;lt;&amp;lt;include&amp;gt;&amp;gt;" style="html=1;verticalAlign=bottom;labelBackgroundColor=none;endArrow=open;endFill=0;dashed=1;rounded=0;exitX=0.017;exitY=0.617;exitDx=0;exitDy=0;exitPerimeter=0;entryX=0.66;entryY=0.043;entryDx=0;entryDy=0;entryPerimeter=0;" parent="z2yshtgwUrTWsipl_77C-11" source="z2yshtgwUrTWsipl_77C-67" target="z2yshtgwUrTWsipl_77C-65" edge="1">
          <mxGeometry width="160" relative="1" as="geometry">
            <mxPoint x="220" y="999" as="sourcePoint" />
            <mxPoint x="380" y="999" as="targetPoint" />
          </mxGeometry>
        </mxCell>
        <mxCell id="z2yshtgwUrTWsipl_77C-73" value="&amp;lt;&amp;lt;include&amp;gt;&amp;gt;" style="html=1;verticalAlign=bottom;labelBackgroundColor=none;endArrow=open;endFill=0;dashed=1;rounded=0;entryX=0.714;entryY=0.886;entryDx=0;entryDy=0;entryPerimeter=0;exitX=0;exitY=0.5;exitDx=0;exitDy=0;" parent="z2yshtgwUrTWsipl_77C-11" source="z2yshtgwUrTWsipl_77C-68" target="z2yshtgwUrTWsipl_77C-65" edge="1">
          <mxGeometry width="160" relative="1" as="geometry">
            <mxPoint x="121" y="1104" as="sourcePoint" />
            <mxPoint x="281" y="1104" as="targetPoint" />
          </mxGeometry>
        </mxCell>
        <mxCell id="BZIjttsFyeLr9ljP96CP-1" value="大模型路径规划与建议" style="ellipse;whiteSpace=wrap;html=1;" parent="z2yshtgwUrTWsipl_77C-11" vertex="1">
          <mxGeometry x="457" y="907" width="140" height="70" as="geometry" />
        </mxCell>
        <mxCell id="BZIjttsFyeLr9ljP96CP-3" value="&amp;lt;&amp;lt;extend&amp;gt;&amp;gt;" style="html=1;verticalAlign=bottom;labelBackgroundColor=none;endArrow=open;endFill=0;dashed=1;rounded=0;entryX=1;entryY=0.5;entryDx=0;entryDy=0;exitX=0;exitY=0.5;exitDx=0;exitDy=0;" parent="z2yshtgwUrTWsipl_77C-11" source="BZIjttsFyeLr9ljP96CP-1" target="z2yshtgwUrTWsipl_77C-67" edge="1">
          <mxGeometry width="160" relative="1" as="geometry">
            <mxPoint x="176" y="995" as="sourcePoint" />
            <mxPoint x="336" y="995" as="targetPoint" />
          </mxGeometry>
        </mxCell>
        <mxCell id="BZIjttsFyeLr9ljP96CP-9" value="调度方案增/删/改/查" style="ellipse;whiteSpace=wrap;html=1;" parent="z2yshtgwUrTWsipl_77C-11" vertex="1">
          <mxGeometry x="447" y="1071" width="140" height="70" as="geometry" />
        </mxCell>
        <mxCell id="z2yshtgwUrTWsipl_77C-66" value="" style="endArrow=open;endFill=1;endSize=12;html=1;rounded=0;exitX=1;exitY=0.3333333333333333;exitDx=0;exitDy=0;exitPerimeter=0;entryX=0;entryY=0.5;entryDx=0;entryDy=0;" parent="z2yshtgwUrTWsipl_77C-11" source="z2yshtgwUrTWsipl_77C-1" target="z2yshtgwUrTWsipl_77C-65" edge="1">
          <mxGeometry width="160" relative="1" as="geometry">
            <mxPoint x="-84" y="1034" as="sourcePoint" />
            <mxPoint x="76" y="1034" as="targetPoint" />
          </mxGeometry>
        </mxCell>
        <mxCell id="BZIjttsFyeLr9ljP96CP-8" value="调度方案导入/出" style="ellipse;whiteSpace=wrap;html=1;" parent="z2yshtgwUrTWsipl_77C-11" vertex="1">
          <mxGeometry x="445" y="989" width="140" height="70" as="geometry" />
        </mxCell>
        <mxCell id="BZIjttsFyeLr9ljP96CP-10" value="&amp;lt;&amp;lt;include&amp;gt;&amp;gt;" style="html=1;verticalAlign=bottom;labelBackgroundColor=none;endArrow=open;endFill=0;dashed=1;rounded=0;entryX=0.987;entryY=0.37;entryDx=0;entryDy=0;exitX=0;exitY=0.5;exitDx=0;exitDy=0;entryPerimeter=0;" parent="z2yshtgwUrTWsipl_77C-11" source="BZIjttsFyeLr9ljP96CP-8" target="z2yshtgwUrTWsipl_77C-68" edge="1">
          <mxGeometry width="160" relative="1" as="geometry">
            <mxPoint x="527" y="1058" as="sourcePoint" />
            <mxPoint x="402" y="1103" as="targetPoint" />
          </mxGeometry>
        </mxCell>
        <mxCell id="BZIjttsFyeLr9ljP96CP-11" value="&amp;lt;&amp;lt;include&amp;gt;&amp;gt;" style="html=1;verticalAlign=bottom;labelBackgroundColor=none;endArrow=open;endFill=0;dashed=1;rounded=0;entryX=0.955;entryY=0.751;entryDx=0;entryDy=0;exitX=0;exitY=0.5;exitDx=0;exitDy=0;entryPerimeter=0;" parent="z2yshtgwUrTWsipl_77C-11" source="BZIjttsFyeLr9ljP96CP-9" target="z2yshtgwUrTWsipl_77C-68" edge="1">
          <mxGeometry width="160" relative="1" as="geometry">
            <mxPoint x="543" y="1086" as="sourcePoint" />
            <mxPoint x="418" y="1131" as="targetPoint" />
          </mxGeometry>
        </mxCell>
        <mxCell id="HxOysK859AeqrsEfD9Qd-2" value="&lt;span style=&quot;font-size: 20px;&quot;&gt;基于XGBoost的地铁智慧监控管理与其周边共享单车调度系统&lt;/span&gt;" style="text;html=1;align=center;verticalAlign=middle;whiteSpace=wrap;rounded=0;" parent="z2yshtgwUrTWsipl_77C-11" vertex="1">
          <mxGeometry x="2" y="14" width="597" height="30" as="geometry" />
        </mxCell>
      </root>
    </mxGraphModel>
  </diagram>
</mxfile>
